<svg width="32" height="32" viewBox="0 0 32 32" fill="none" xmlns="http://www.w3.org/2000/svg">
<circle cx="16" cy="16" r="16" fill="#93E9BE"/>
<mask id="mask0_16_3" style="mask-type:alpha" maskUnits="userSpaceOnUse" x="8" y="6" width="18" height="21">
<path d="M20.8026 16.304C20.8026 14.8747 20.5573 13.7013 20.0666 12.784C19.5973 11.8667 18.936 11.184 18.0826 10.736C17.2506 10.2667 16.28 10.032 15.1706 10.032C14.7866 10.032 14.4133 10.0533 14.0506 10.096C13.7093 10.1173 13.3573 10.1493 12.9946 10.192V22.32C13.3146 22.384 13.6773 22.4373 14.0826 22.48C14.488 22.5013 14.872 22.512 15.2346 22.512C16.92 22.512 18.264 21.9893 19.2666 20.944C20.2906 19.8987 20.8026 18.352 20.8026 16.304ZM25.8266 16.208C25.8266 18.512 25.3786 20.4213 24.4826 21.936C23.608 23.4507 22.3706 24.592 20.7706 25.36C19.192 26.1067 17.336 26.48 15.2026 26.48C14.4986 26.48 13.6346 26.4267 12.6106 26.32C11.5866 26.2347 10.6586 26.0427 9.82663 25.744C8.71729 25.3387 8.16263 24.624 8.16263 23.6V8.304C8.16263 7.87733 8.27996 7.55733 8.51463 7.344C8.74929 7.10933 9.05863 6.91733 9.44263 6.768C10.296 6.49067 11.2133 6.30933 12.1946 6.224C13.176 6.13867 14.072 6.096 14.8826 6.096C17.08 6.096 18.9893 6.46933 20.6106 7.216C22.2533 7.94133 23.5333 9.05067 24.4506 10.544C25.368 12.0373 25.8266 13.9253 25.8266 16.208Z" fill="black"/>
</mask>
<g mask="url(#mask0_16_3)">
<rect x="0.0909119" y="16.6923" width="32.8182" height="12.3077" fill="#FDFFF5"/>
</g>
<mask id="mask1_16_3" style="mask-type:alpha" maskUnits="userSpaceOnUse" x="8" y="6" width="18" height="21">
<path d="M20.8026 16.304C20.8026 14.8747 20.5573 13.7013 20.0666 12.784C19.5973 11.8667 18.936 11.184 18.0826 10.736C17.2506 10.2667 16.28 10.032 15.1706 10.032C14.7866 10.032 14.4133 10.0533 14.0506 10.096C13.7093 10.1173 13.3573 10.1493 12.9946 10.192V22.32C13.3146 22.384 13.6773 22.4373 14.0826 22.48C14.488 22.5013 14.872 22.512 15.2346 22.512C16.92 22.512 18.264 21.9893 19.2666 20.944C20.2906 19.8987 20.8026 18.352 20.8026 16.304ZM25.8266 16.208C25.8266 18.512 25.3786 20.4213 24.4826 21.936C23.608 23.4507 22.3706 24.592 20.7706 25.36C19.192 26.1067 17.336 26.48 15.2026 26.48C14.4986 26.48 13.6346 26.4267 12.6106 26.32C11.5866 26.2347 10.6586 26.0427 9.82663 25.744C8.71729 25.3387 8.16263 24.624 8.16263 23.6V8.304C8.16263 7.87733 8.27996 7.55733 8.51463 7.344C8.74929 7.10933 9.05863 6.91733 9.44263 6.768C10.296 6.49067 11.2133 6.30933 12.1946 6.224C13.176 6.13867 14.072 6.096 14.8826 6.096C17.08 6.096 18.9893 6.46933 20.6106 7.216C22.2533 7.94133 23.5333 9.05067 24.4506 10.544C25.368 12.0373 25.8266 13.9253 25.8266 16.208Z" fill="black"/>
</mask>
<g mask="url(#mask1_16_3)">
<rect x="0.0909119" y="4.38461" width="32.8182" height="12.3077" fill="#588157"/>
</g>
</svg>
