<svg width="100%" height="100%" viewBox="0 0 1440 690" xmlns="http://www.w3.org/2000/svg" class="transition duration-300 ease-in-out delay-150"><path d="M 0,700 C 0,700 0,175 0,175 C 80.83545173479905,164.0051528684301 161.6709034695981,153.01030573686018 224,142 C 286.3290965304019,130.98969426313982 330.1518378564067,119.96392992098936 394,151 C 457.8481621435933,182.03607007901064 541.721745104775,255.13397457918242 616,239 C 690.278254895225,222.86602542081758 754.9611817244933,117.500171762281 820,115 C 885.0388182755067,112.499828237719 950.433527997252,212.86533837169358 1013,231 C 1075.566472002748,249.13466162830642 1135.3047062864994,185.0384747509447 1206,162 C 1276.6952937135006,138.9615252490553 1358.3476468567503,156.98076262452764 1440,175 C 1440,175 1440,700 1440,700 Z" stroke="none" stroke-width="0" fill="#32936f" fill-opacity="0.4" class="transition-all duration-300 ease-in-out delay-150 path-0"></path><path d="M 0,700 C 0,700 0,350 0,350 C 81.37753349364479,373.8564067330814 162.75506698728958,397.71281346616286 233,391 C 303.2449330127104,384.28718653383714 362.35726554448644,347.0051528684301 425,346 C 487.64273445551356,344.9948471315699 553.8158708347647,380.2665750601168 618,376 C 682.1841291652353,371.7334249398832 744.3792511164548,327.92854689110266 814,313 C 883.6207488835452,298.07145310889734 960.667124699416,312.01923737547236 1026,317 C 1091.332875300584,321.98076262452764 1144.9522500858811,317.99450360700786 1212,322 C 1279.0477499141189,326.00549639299214 1359.5238749570594,338.0027481964961 1440,350 C 1440,350 1440,700 1440,700 Z" stroke="none" stroke-width="0" fill="#32936f" fill-opacity="0.53" class="transition-all duration-300 ease-in-out delay-150 path-1"></path><path d="M 0,700 C 0,700 0,525 0,525 C 84.57986946066643,553.1525249055308 169.15973892133286,581.3050498110615 230,566 C 290.84026107866714,550.6949501889385 327.94091377533493,491.9323256612847 384,490 C 440.05908622466507,488.0676743387153 515.0766059773273,542.9656475437994 602,546 C 688.9233940226727,549.0343524562006 787.7526623153556,500.2050841635177 853,482 C 918.2473376846444,463.7949158364823 949.9127447612505,476.21401580212984 1011,491 C 1072.0872552387495,505.78598419787016 1162.5963586396426,522.9388526279629 1239,529 C 1315.4036413603574,535.0611473720371 1377.7018206801786,530.0305736860186 1440,525 C 1440,525 1440,700 1440,700 Z" stroke="none" stroke-width="0" fill="#32936f" fill-opacity="1" class="transition-all duration-300 ease-in-out delay-150 path-2"></path></svg>