<svg width="178" height="91" viewBox="0 0 178 91" fill="none" xmlns="http://www.w3.org/2000/svg">
<path d="M113.224 25.216C62.3538 31.5169 61.3498 26.6116 50.5083 42.4421C38.6501 59.7571 51.6319 75.6036 67.0493 57.0488V57.0488C81.4246 39.7481 46.6464 27.3446 31.3984 43.8323C24.7454 51.0262 17.9089 62.4747 11.8085 80.2977" stroke="#588157" stroke-width="3" stroke-linecap="round"/>
<path d="M23.2342 80.765L13.1691 87.4449C10.6685 89.1045 7.56517 87.6436 7.3488 84.7049L6.28094 70.2015" stroke="#588157" stroke-width="3" stroke-linecap="round"/>
<path d="M121.405 14.492C121.405 13.036 121.344 11.7527 121.223 10.642C121.223 10.3527 121.344 10.1007 121.587 9.886C121.83 9.67133 122.152 9.508 122.553 9.396C123.356 9.19067 124.238 9.088 125.199 9.088C126.44 9.088 127.416 9.36333 128.125 9.914C128.844 10.4553 129.203 11.2907 129.203 12.42C129.203 13.5493 128.746 14.4547 127.831 15.136C126.916 15.8173 125.801 16.158 124.485 16.158C123.813 16.158 123.108 16.018 122.371 15.738C122.324 16.186 122.301 16.7927 122.301 17.558L122.315 18.244C122.315 18.468 122.31 18.7013 122.301 18.944C122.254 19.0093 122.203 19.056 122.147 19.084C122.091 19.112 122.049 19.1307 122.021 19.14C122.002 19.1587 121.97 19.1727 121.923 19.182C121.876 19.1913 121.844 19.196 121.825 19.196C121.769 19.2147 121.704 19.224 121.629 19.224H121.391C121.372 18.524 121.363 17.894 121.363 17.334L121.405 14.492ZM122.343 14.73C123.024 15.1873 123.841 15.416 124.793 15.416C125.745 15.4067 126.548 15.1127 127.201 14.534C127.854 13.946 128.181 13.2273 128.181 12.378C128.181 11.5287 127.845 10.894 127.173 10.474C126.501 10.054 125.694 9.844 124.751 9.844C123.818 9.844 122.992 10.0587 122.273 10.488C122.32 11.0947 122.343 12.5087 122.343 14.73ZM133.823 13.4C133.739 13.1853 133.581 13.0173 133.347 12.896C133.114 12.7747 132.825 12.714 132.479 12.714C132.134 12.714 131.807 12.8167 131.499 13.022C131.201 13.2273 131.051 13.5027 131.051 13.848C131.051 14.1933 131.191 14.4687 131.471 14.674C131.761 14.87 132.106 15.0193 132.507 15.122C132.918 15.2247 133.329 15.3367 133.739 15.458C134.15 15.57 134.495 15.7613 134.775 16.032C135.065 16.2933 135.209 16.6387 135.209 17.068C135.209 17.6933 134.948 18.1693 134.425 18.496C133.912 18.8227 133.291 18.986 132.563 18.986C132.134 18.986 131.569 18.8693 130.869 18.636C130.179 18.4027 129.833 18.1227 129.833 17.796C129.833 17.5533 130.039 17.432 130.449 17.432C130.571 17.432 130.729 17.5067 130.925 17.656C131.523 18.0947 132.134 18.314 132.759 18.314C133.095 18.314 133.385 18.258 133.627 18.146C134.075 17.9313 134.299 17.586 134.299 17.11C134.299 16.8207 134.155 16.5873 133.865 16.41C133.585 16.2327 133.24 16.0927 132.829 15.99C132.428 15.8873 132.022 15.7753 131.611 15.654C131.201 15.5327 130.851 15.332 130.561 15.052C130.281 14.7627 130.141 14.3987 130.141 13.96C130.141 13.3907 130.398 12.9287 130.911 12.574C131.425 12.2193 132.059 12.042 132.815 12.042C133.329 12.042 133.791 12.1773 134.201 12.448C134.621 12.7093 134.831 13.092 134.831 13.596C134.831 13.932 134.64 14.1 134.257 14.1C134.099 14.1 133.991 14.072 133.935 14.016C133.889 13.96 133.861 13.862 133.851 13.722C133.851 13.5727 133.842 13.4653 133.823 13.4ZM139.921 13.4C139.837 13.1853 139.678 13.0173 139.445 12.896C139.212 12.7747 138.922 12.714 138.577 12.714C138.232 12.714 137.905 12.8167 137.597 13.022C137.298 13.2273 137.149 13.5027 137.149 13.848C137.149 14.1933 137.289 14.4687 137.569 14.674C137.858 14.87 138.204 15.0193 138.605 15.122C139.016 15.2247 139.426 15.3367 139.837 15.458C140.248 15.57 140.593 15.7613 140.873 16.032C141.162 16.2933 141.307 16.6387 141.307 17.068C141.307 17.6933 141.046 18.1693 140.523 18.496C140.01 18.8227 139.389 18.986 138.661 18.986C138.232 18.986 137.667 18.8693 136.967 18.636C136.276 18.4027 135.931 18.1227 135.931 17.796C135.931 17.5533 136.136 17.432 136.547 17.432C136.668 17.432 136.827 17.5067 137.023 17.656C137.62 18.0947 138.232 18.314 138.857 18.314C139.193 18.314 139.482 18.258 139.725 18.146C140.173 17.9313 140.397 17.586 140.397 17.11C140.397 16.8207 140.252 16.5873 139.963 16.41C139.683 16.2327 139.338 16.0927 138.927 15.99C138.526 15.8873 138.12 15.7753 137.709 15.654C137.298 15.5327 136.948 15.332 136.659 15.052C136.379 14.7627 136.239 14.3987 136.239 13.96C136.239 13.3907 136.496 12.9287 137.009 12.574C137.522 12.2193 138.157 12.042 138.913 12.042C139.426 12.042 139.888 12.1773 140.299 12.448C140.719 12.7093 140.929 13.092 140.929 13.596C140.929 13.932 140.738 14.1 140.355 14.1C140.196 14.1 140.089 14.072 140.033 14.016C139.986 13.96 139.958 13.862 139.949 13.722C139.949 13.5727 139.94 13.4653 139.921 13.4ZM142.519 13.134C142.099 13.134 141.814 13.0313 141.665 12.826C141.665 12.6767 141.725 12.56 141.847 12.476C141.977 12.392 142.117 12.3407 142.267 12.322C142.416 12.294 142.659 12.2707 142.995 12.252C143.023 12 143.037 11.678 143.037 11.286C143.046 10.8847 143.055 10.544 143.065 10.264C143.093 9.52667 143.205 9.074 143.401 8.906C143.485 8.83133 143.573 8.794 143.667 8.794C143.769 8.794 143.858 8.80333 143.933 8.822C143.961 9.494 143.975 9.9 143.975 10.04L143.891 12.14C143.909 12.1493 143.961 12.154 144.045 12.154L145.053 12.112C145.781 12.112 146.145 12.224 146.145 12.448C146.145 12.7653 146.014 12.952 145.753 13.008C145.631 13.036 145.487 13.05 145.319 13.05C145.16 13.05 144.95 13.0313 144.689 12.994C144.437 12.9473 144.255 12.924 144.143 12.924C144.031 12.924 143.956 12.9287 143.919 12.938C143.891 13.2087 143.877 13.4793 143.877 13.75C143.877 14.0113 143.881 14.3427 143.891 14.744C143.909 15.136 143.947 15.6073 144.003 16.158C144.068 16.7087 144.203 17.1847 144.409 17.586C144.614 17.978 144.875 18.174 145.193 18.174C145.351 18.174 145.538 18.1133 145.753 17.992C145.967 17.8613 146.131 17.796 146.243 17.796C146.364 17.796 146.467 17.824 146.551 17.88C146.644 17.9267 146.691 17.9827 146.691 18.048C146.691 18.244 146.49 18.4353 146.089 18.622C145.697 18.7993 145.361 18.888 145.081 18.888C144.054 18.888 143.415 17.9173 143.163 15.976C143.088 15.416 143.032 14.4547 142.995 13.092C142.845 13.12 142.687 13.134 142.519 13.134ZM147.592 19.308C147.592 19.224 147.578 19.1027 147.55 18.944C147.522 18.776 147.499 18.6267 147.48 18.496C147.471 18.3653 147.471 18.2347 147.48 18.104C147.499 17.8147 147.686 17.67 148.04 17.67C148.339 17.67 148.488 18.1133 148.488 19C148.488 20.5307 147.98 21.6833 146.962 22.458C146.85 22.5327 146.743 22.57 146.64 22.57C146.538 22.57 146.44 22.5467 146.346 22.5C146.253 22.4533 146.206 22.3927 146.206 22.318C146.206 22.2527 146.262 22.1733 146.374 22.08C147.186 21.4547 147.592 20.5307 147.592 19.308ZM157.003 17.376C156.854 17.8053 156.564 18.1693 156.135 18.468C155.715 18.7667 155.253 18.916 154.749 18.916C154.254 18.916 153.867 18.6687 153.587 18.174C153.316 17.67 153.181 16.9747 153.181 16.088C153.181 13.5867 153.55 12.336 154.287 12.336C154.38 12.336 154.497 12.35 154.637 12.378C154.609 12.5273 154.544 12.812 154.441 13.232C154.236 14.0533 154.133 14.7767 154.133 15.402C154.133 16.0273 154.222 16.69 154.399 17.39C154.576 18.0807 154.828 18.426 155.155 18.426C155.323 18.426 155.486 18.3187 155.645 18.104C155.804 17.8893 155.93 17.6653 156.023 17.432C156.116 17.1893 156.214 16.914 156.317 16.606C156.42 16.298 156.485 16.1113 156.513 16.046C156.373 15.5047 156.303 14.954 156.303 14.394C156.303 14.366 156.303 14.282 156.303 14.142C156.303 13.9927 156.308 13.848 156.317 13.708C156.326 13.568 156.354 13.4 156.401 13.204C156.494 12.812 156.746 12.616 157.157 12.616C157.502 12.616 157.675 13.1387 157.675 14.184C157.675 14.3707 157.647 14.6413 157.591 14.996C157.544 15.3507 157.521 15.598 157.521 15.738C157.521 16.1673 157.726 16.7227 158.137 17.404C158.548 18.0853 158.93 18.426 159.285 18.426C159.649 18.426 159.915 18.2207 160.083 17.81C160.251 17.3993 160.335 16.942 160.335 16.438C160.335 15.8593 160.284 15.4207 160.181 15.122C160.088 14.814 160.027 14.6133 159.999 14.52C159.98 14.4267 159.92 14.282 159.817 14.086C159.724 13.8807 159.663 13.75 159.635 13.694C159.616 13.638 159.546 13.5027 159.425 13.288C159.304 13.0733 159.234 12.952 159.215 12.924C158.944 12.448 158.786 12.1867 158.739 12.14C158.972 11.944 159.187 11.846 159.383 11.846C159.952 12.2567 160.405 12.9287 160.741 13.862C161.077 14.786 161.245 15.6307 161.245 16.396C161.245 17.152 161.082 17.7493 160.755 18.188C160.438 18.6173 159.938 18.832 159.257 18.832C158.781 18.832 158.328 18.7013 157.899 18.44C157.479 18.1693 157.18 17.8147 157.003 17.376ZM163.637 8.696C163.628 8.91067 163.623 9.14867 163.623 9.41C163.623 9.67133 163.637 9.942 163.665 10.222C163.535 10.3713 163.357 10.446 163.133 10.446C162.853 10.446 162.713 10.222 162.713 9.774C162.713 9.75533 162.713 9.68533 162.713 9.564C162.713 9.44267 162.713 9.33533 162.713 9.242C162.723 9.13933 162.741 9.02267 162.769 8.892C162.835 8.668 162.979 8.556 163.203 8.556C163.427 8.556 163.572 8.60267 163.637 8.696ZM162.741 15.556C162.741 13.7267 162.835 12.672 163.021 12.392C163.087 12.2893 163.166 12.238 163.259 12.238C163.353 12.238 163.507 12.2893 163.721 12.392C163.675 13.1853 163.651 14.0487 163.651 14.982C163.651 14.982 163.661 16.0133 163.679 18.076C163.679 18.3653 163.614 18.5707 163.483 18.692C163.362 18.804 163.245 18.86 163.133 18.86C163.031 18.86 162.923 18.832 162.811 18.776C162.765 17.5627 162.741 16.4893 162.741 15.556ZM166.258 18.566C166.286 19.322 166.379 20.3907 166.538 21.772C166.361 21.9493 166.151 22.038 165.908 22.038C165.861 22.038 165.81 22.0333 165.754 22.024C165.745 21.66 165.675 20.834 165.544 19.546C165.423 18.258 165.362 17.2733 165.362 16.592C165.362 15.9013 165.404 15.304 165.488 14.8C165.572 14.296 165.717 13.8247 165.922 13.386C166.342 12.4807 167.117 12.028 168.246 12.028C168.946 12.028 169.52 12.4107 169.968 13.176C170.416 13.9413 170.64 14.8327 170.64 15.85C170.64 16.6527 170.379 17.3573 169.856 17.964C169.333 18.5707 168.61 18.874 167.686 18.874C167.117 18.874 166.641 18.7713 166.258 18.566ZM168.134 12.784C167.341 12.784 166.813 13.1947 166.552 14.016C166.328 14.716 166.216 15.682 166.216 16.914C166.216 17.362 166.221 17.6933 166.23 17.908C167.061 18.0853 167.625 18.174 167.924 18.174C168.465 18.174 168.895 17.9593 169.212 17.53C169.529 17.0913 169.688 16.5593 169.688 15.934C169.688 15.01 169.548 14.254 169.268 13.666C168.997 13.078 168.619 12.784 168.134 12.784ZM172.75 16.158C172.731 16.3447 172.722 16.4707 172.722 16.536C172.722 17.096 172.89 17.53 173.226 17.838C173.571 18.146 173.977 18.3 174.444 18.3C174.911 18.3 175.289 18.2347 175.578 18.104C175.877 17.9733 176.091 17.8333 176.222 17.684C176.558 17.264 176.866 17.054 177.146 17.054C177.249 17.054 177.37 17.082 177.51 17.138C177.417 17.5953 177.062 18.0153 176.446 18.398C175.839 18.7713 175.074 18.958 174.15 18.958C173.497 18.958 172.932 18.7527 172.456 18.342C171.989 17.922 171.756 17.3527 171.756 16.634C171.756 15.9153 171.896 15.22 172.176 14.548C172.465 13.8667 172.876 13.288 173.408 12.812C173.949 12.3267 174.495 12.084 175.046 12.084C175.606 12.084 176.054 12.2007 176.39 12.434C176.735 12.658 176.908 12.9893 176.908 13.428C176.908 14.24 176.544 14.912 175.816 15.444C175.097 15.9667 174.332 16.228 173.52 16.228C173.305 16.228 173.049 16.2047 172.75 16.158ZM173.814 15.696C174.253 15.696 174.645 15.556 174.99 15.276C175.335 14.996 175.578 14.702 175.718 14.394C175.867 14.086 175.942 13.806 175.942 13.554C175.942 13.302 175.844 13.0827 175.648 12.896C175.452 12.7 175.223 12.602 174.962 12.602C174.495 12.602 174.061 12.924 173.66 13.568C173.268 14.212 172.988 14.8793 172.82 15.57C173.231 15.654 173.562 15.696 173.814 15.696ZM124.713 31.882C124.815 31.882 124.867 32.498 124.867 33.73C124.867 33.926 124.862 34.2387 124.853 34.668C124.853 35.0973 124.853 35.3213 124.853 35.34C124.946 34.2853 125.039 33.5667 125.133 33.184C125.235 32.8013 125.338 32.4747 125.441 32.204C125.543 31.924 125.655 31.7093 125.777 31.56C126.075 31.1773 126.421 30.986 126.813 30.986C127.307 30.986 127.676 31.2333 127.919 31.728C128.171 32.2227 128.301 32.8807 128.311 33.702C128.544 32.0127 129.16 31.168 130.159 31.168C130.588 31.168 130.891 31.3873 131.069 31.826C131.246 32.2647 131.335 32.7873 131.335 33.394L131.293 35.522C131.293 36.922 131.596 37.622 132.203 37.622L133.001 37.496C133.047 37.496 133.094 37.5007 133.141 37.51C133.047 37.65 132.875 37.762 132.623 37.846C132.371 37.9207 132.123 37.958 131.881 37.958C131.405 37.958 131.045 37.748 130.803 37.328C130.569 36.8987 130.443 36.4507 130.425 35.984C130.406 35.508 130.397 35.102 130.397 34.766L130.425 33.52C130.425 33.1093 130.397 32.7173 130.341 32.344C130.294 31.9707 130.163 31.784 129.949 31.784C129.631 31.784 129.323 32.4513 129.025 33.786C128.735 35.1113 128.558 36.3713 128.493 37.566C128.334 37.734 128.133 37.8227 127.891 37.832C127.816 37.832 127.746 37.818 127.681 37.79C127.597 37.3047 127.55 36.4973 127.541 35.368C127.541 34.2293 127.485 33.324 127.373 32.652C127.261 31.98 127.009 31.644 126.617 31.644C126.355 31.644 126.141 31.9333 125.973 32.512C125.702 33.4173 125.459 34.8267 125.245 36.74C125.189 37.188 125.147 37.51 125.119 37.706C124.923 37.874 124.722 37.958 124.517 37.958L124.307 37.93C124.176 36.3713 124.111 34.4393 124.111 32.134C124.213 31.966 124.414 31.882 124.713 31.882ZM134.12 35.158C134.101 35.3447 134.092 35.4707 134.092 35.536C134.092 36.096 134.26 36.53 134.596 36.838C134.941 37.146 135.347 37.3 135.814 37.3C136.281 37.3 136.659 37.2347 136.948 37.104C137.247 36.9733 137.461 36.8333 137.592 36.684C137.928 36.264 138.236 36.054 138.516 36.054C138.619 36.054 138.74 36.082 138.88 36.138C138.787 36.5953 138.432 37.0153 137.816 37.398C137.209 37.7713 136.444 37.958 135.52 37.958C134.867 37.958 134.302 37.7527 133.826 37.342C133.359 36.922 133.126 36.3527 133.126 35.634C133.126 34.9153 133.266 34.22 133.546 33.548C133.835 32.8667 134.246 32.288 134.778 31.812C135.319 31.3267 135.865 31.084 136.416 31.084C136.976 31.084 137.424 31.2007 137.76 31.434C138.105 31.658 138.278 31.9893 138.278 32.428C138.278 33.24 137.914 33.912 137.186 34.444C136.467 34.9667 135.702 35.228 134.89 35.228C134.675 35.228 134.419 35.2047 134.12 35.158ZM135.184 34.696C135.623 34.696 136.015 34.556 136.36 34.276C136.705 33.996 136.948 33.702 137.088 33.394C137.237 33.086 137.312 32.806 137.312 32.554C137.312 32.302 137.214 32.0827 137.018 31.896C136.822 31.7 136.593 31.602 136.332 31.602C135.865 31.602 135.431 31.924 135.03 32.568C134.638 33.212 134.358 33.8793 134.19 34.57C134.601 34.654 134.932 34.696 135.184 34.696ZM147.885 32.75C147.708 32.9273 147.531 33.016 147.353 33.016C147.176 33.016 147.031 32.9413 146.919 32.792C146.817 32.6333 146.733 32.4653 146.667 32.288C146.602 32.1013 146.481 31.9333 146.303 31.784C146.135 31.6253 145.921 31.546 145.659 31.546C145.295 31.5833 144.964 31.8447 144.665 32.33C144.367 32.806 144.147 33.3333 144.007 33.912C143.867 34.4907 143.797 35.0367 143.797 35.55C143.797 36.054 143.937 36.4927 144.217 36.866C144.507 37.23 144.894 37.412 145.379 37.412C145.939 37.412 146.387 37.216 146.723 36.824C146.863 36.656 146.994 36.488 147.115 36.32C147.414 35.928 147.685 35.732 147.927 35.732C148.011 35.732 148.133 35.7553 148.291 35.802C148.291 36.1473 147.974 36.6047 147.339 37.174C146.714 37.734 146.033 38.014 145.295 38.014C144.558 38.014 143.975 37.7807 143.545 37.314C143.125 36.838 142.915 36.2267 142.915 35.48C142.915 34.5187 143.149 33.5573 143.615 32.596C143.849 32.1293 144.166 31.7467 144.567 31.448C144.969 31.14 145.417 30.986 145.911 30.986C146.406 30.986 146.803 31.154 147.101 31.49C147.409 31.8167 147.671 32.2367 147.885 32.75ZM149.892 29.628C149.892 28.704 149.766 28.0833 149.514 27.766C149.635 27.5887 149.845 27.5 150.144 27.5C150.2 27.5 150.26 27.5047 150.326 27.514C150.559 27.7473 150.676 28.424 150.676 29.544C150.676 30.1507 150.648 30.8553 150.592 31.658C150.48 33.058 150.424 34.0847 150.424 34.738C150.424 36.502 150.764 37.384 151.446 37.384C151.446 37.384 151.618 37.3513 151.964 37.286C152.048 37.286 152.118 37.3233 152.174 37.398C152.146 37.734 151.87 37.902 151.348 37.902C150.834 37.902 150.438 37.748 150.158 37.44C149.878 37.1227 149.7 36.7307 149.626 36.264C149.56 35.788 149.528 35.396 149.528 35.088C149.528 34.78 149.532 34.444 149.542 34.08C149.551 33.7067 149.593 33.1747 149.668 32.484C149.817 31.084 149.892 30.132 149.892 29.628ZM153.479 35.158C153.461 35.3447 153.451 35.4707 153.451 35.536C153.451 36.096 153.619 36.53 153.955 36.838C154.301 37.146 154.707 37.3 155.173 37.3C155.64 37.3 156.018 37.2347 156.307 37.104C156.606 36.9733 156.821 36.8333 156.951 36.684C157.287 36.264 157.595 36.054 157.875 36.054C157.978 36.054 158.099 36.082 158.239 36.138C158.146 36.5953 157.791 37.0153 157.175 37.398C156.569 37.7713 155.803 37.958 154.879 37.958C154.226 37.958 153.661 37.7527 153.185 37.342C152.719 36.922 152.485 36.3527 152.485 35.634C152.485 34.9153 152.625 34.22 152.905 33.548C153.195 32.8667 153.605 32.288 154.137 31.812C154.679 31.3267 155.225 31.084 155.775 31.084C156.335 31.084 156.783 31.2007 157.119 31.434C157.465 31.658 157.637 31.9893 157.637 32.428C157.637 33.24 157.273 33.912 156.545 34.444C155.827 34.9667 155.061 35.228 154.249 35.228C154.035 35.228 153.778 35.2047 153.479 35.158ZM154.543 34.696C154.982 34.696 155.374 34.556 155.719 34.276C156.065 33.996 156.307 33.702 156.447 33.394C156.597 33.086 156.671 32.806 156.671 32.554C156.671 32.302 156.573 32.0827 156.377 31.896C156.181 31.7 155.953 31.602 155.691 31.602C155.225 31.602 154.791 31.924 154.389 32.568C153.997 33.212 153.717 33.8793 153.549 34.57C153.96 34.654 154.291 34.696 154.543 34.696ZM163.807 33.968L163.737 35.578C163.737 36.39 163.83 36.936 164.017 37.216C164.129 37.4027 164.283 37.496 164.479 37.496C164.535 37.496 164.614 37.482 164.717 37.454C164.913 37.398 165.076 37.426 165.207 37.538C165.141 37.8647 164.815 38.028 164.227 38.028C163.825 38.028 163.559 37.86 163.429 37.524C163.326 37.272 163.251 36.9593 163.205 36.586C163.158 36.2033 163.121 35.942 163.093 35.802C162.486 36.9593 161.898 37.664 161.329 37.916C161.039 38.0467 160.703 38.112 160.321 38.112C159.938 38.112 159.639 37.93 159.425 37.566C159.219 37.1927 159.117 36.6513 159.117 35.942C159.117 35.2327 159.233 34.4907 159.467 33.716C159.7 32.932 160.041 32.274 160.489 31.742C160.937 31.2007 161.427 30.93 161.959 30.93C162.724 30.93 163.233 31.2473 163.485 31.882C163.699 32.4233 163.807 33.1187 163.807 33.968ZM160.377 33.52C160.246 34.024 160.148 34.5047 160.083 34.962C160.017 35.41 159.985 35.8113 159.985 36.166C159.985 36.5113 160.055 36.81 160.195 37.062C160.344 37.314 160.535 37.44 160.769 37.44C161.273 37.44 161.758 36.964 162.225 36.012C162.691 35.06 162.925 34.1733 162.925 33.352C162.925 32.82 162.785 32.3813 162.505 32.036C162.318 31.812 162.071 31.7 161.763 31.7C161.464 31.7 161.189 31.8773 160.937 32.232C160.694 32.5773 160.507 33.0067 160.377 33.52ZM171.426 37.608C171.258 37.7853 171.066 37.874 170.852 37.874C170.45 37.874 170.152 37.6593 169.956 37.23C169.76 36.8007 169.643 36.278 169.606 35.662C169.578 35.046 169.559 34.43 169.55 33.814C169.54 33.198 169.489 32.6753 169.396 32.246C169.312 31.8167 169.148 31.602 168.906 31.602C168.579 31.602 168.299 31.896 168.066 32.484C167.842 33.072 167.683 33.7253 167.59 34.444C167.328 36.4507 167.076 37.5753 166.834 37.818C166.666 37.902 166.521 37.944 166.4 37.944C166.278 37.944 166.176 37.93 166.092 37.902C165.896 37.0433 165.77 35.564 165.714 33.464C165.695 32.4187 165.676 31.742 165.658 31.434C165.854 31.3033 166.022 31.238 166.162 31.238C166.302 31.238 166.414 31.252 166.498 31.28C166.544 31.6813 166.568 32.5027 166.568 33.744C166.577 34.9853 166.586 35.6993 166.596 35.886C166.642 35.69 166.698 35.3727 166.764 34.934C166.838 34.4953 166.904 34.136 166.96 33.856C167.016 33.5667 167.104 33.2307 167.226 32.848C167.347 32.4653 167.482 32.162 167.632 31.938C167.781 31.7047 167.986 31.5087 168.248 31.35C168.509 31.182 168.803 31.098 169.13 31.098C169.568 31.098 169.886 31.2987 170.082 31.7C170.287 32.092 170.399 32.582 170.418 33.17C170.436 33.758 170.446 34.3553 170.446 34.962C170.455 35.5687 170.53 36.124 170.67 36.628C170.819 37.132 171.071 37.4587 171.426 37.608ZM172.764 28.494C172.773 28.382 172.839 28.2933 172.96 28.228C173.081 28.1533 173.217 28.116 173.366 28.116C173.618 28.116 173.744 28.2093 173.744 28.396C173.725 31.1493 173.655 33.2167 173.534 34.598C173.525 34.7007 173.45 34.7893 173.31 34.864C173.179 34.9293 173.049 34.962 172.918 34.962C172.685 34.962 172.568 34.8687 172.568 34.682C172.699 33.31 172.764 31.2473 172.764 28.494ZM172.876 37.034C172.979 37.0153 173.1 37.006 173.24 37.006C173.389 37.006 173.543 37.062 173.702 37.174C173.861 37.286 173.94 37.44 173.94 37.636C173.94 37.832 173.837 38.0093 173.632 38.168C173.436 38.336 173.249 38.42 173.072 38.42C172.904 38.42 172.722 38.3547 172.526 38.224C172.33 38.1027 172.232 37.972 172.232 37.832C172.232 37.384 172.447 37.118 172.876 37.034Z" fill="#588157"/>
</svg>
